<svg xmlns="http://www.w3.org/2000/svg" xmlns:xlink="http://www.w3.org/1999/xlink" viewBox="0 0 100 100"><defs><path id="a" d="M34.8 23.7L32.3 28l-1.8-4.9-4.9-1.4 3.8-3.1-.4-5 4.2 3 4.6-1.8-1.2 4.9 3.3 4h-5.1zM23.7 34.8l-.1 5-4-3.3-4.9 1.2 1.8-4.6-3-4.2 5.1.5 3.1-3.8 1.4 4.9 4.9 1.8-4.3 2.5zm-4 15.2l2.4 4.3-5.1-.8-3.7 3.5-.7-4.9L7.9 50l4.7-2.2.7-4.9 3.6 3.5 5.1-.8-2.3 4.4zm4 15.2l4.3 2.5-4.9 1.8-1.4 4.9-3.1-3.8-5 .4 3-4.2-1.8-4.6 4.9 1.2 4-3.3v5.1zm11.1 11.1l5 .1-3.3 4 1.2 4.9-4.6-1.8-4.2 3 .5-5.1-3.8-3.1 4.9-1.4 1.8-4.9 2.5 4.3zm15.2 4l4.3-2.4-.8 5.1 3.5 3.6-4.9.7-2.1 4.8-2.2-4.7-4.8-.7 3.5-3.6-.8-5.1 4.3 2.3zm15.2-4l2.5-4.3 1.8 4.9 4.9 1.4-3.8 3.1.5 5.1-4.2-3-4.6 1.8 1.2-4.9-3.3-4 5-.1zm11.1-11.1l.1-5 4 3.3 4.9-1.2-1.8 4.6 3 4.2-5.1-.5-3.1 3.8-1.4-4.9-4.9-1.8 4.3-2.5zm4-15.2l-2.4-4.3 5.1.8 3.6-3.5.7 4.9 4.7 2.2-4.7 2.2-.6 4.7-3.7-3.5-5.1.8 2.4-4.3zm-4-15.2L72 32.3l4.9-1.8 1.4-4.9 3.1 3.8 5.1-.5-3 4.2 1.8 4.6-4.9-1.2-4 3.3-.1-5zM65.2 23.7l-5-.1 3.3-4-1.2-4.9 4.6 1.8 4.2-3-.5 5.1 3.8 3.1-4.9 1.4-1.8 4.9-2.5-4.3zm-15.2-4l-4.3 2.4.8-5.1-3.5-3.7 4.9-.7L50 7.9l2.2 4.7 4.9.7-3.6 3.7.8 5.1-4.3-2.4z"/></defs><clipPath id="b"><use xlink:href="#a" overflow="visible"/></clipPath><path clip-path="url(#b)" d="M3.3 3.3h93.4v93.4H3.3z"/></svg>